#!OML:ASF X:\für Bonn\!DataBase\2005_08_11_Bastian_Final\c3d\Bastian.ASF
:FULLY-SPECIFIED
:DEGREES
77
root 0.714907 6.21231 0.246497 164.897 -3.42071 -177.994
lowerback 40.5994 2.45065 -1.33312
upperback 7.10153 -0.237395 0.894381
thorax -11.6945 -1.26827 2.01353
lowerneck -11.3058 -5.83613 -5.8107
upperneck -11.6796 -8.21958 10.3732
head -1.11709 -4.67092 4.21919
rclavicle 1.50082e-014 -1.19271e-015
rhumerus 69.003 -10.3332 22.1711
rradius 45.3344
rwrist -87.5633
rhand -50.6182 -3.68175
rfingers 7.12502
rthumb -23.1823 -32.3067
lclavicle 1.50082e-014 -1.19271e-015
lhumerus 62.1151 0.300429 -18.7765
lradius 35.6623
lwrist 30.3635
lhand -50.6336 22.5443
lfingers 7.12502
lthumb -23.1971 51.1674
rfemur 29.8146 -77.6971 -80.1815
rtibia 162.776
rfoot -56.6039 -5.23699
rtoes -7.15802
lfemur -62.002 72.9646 4.92514
ltibia 163.147
lfoot -48.1744 -22.8645
ltoes -10.4478
78
root 0.720859 6.26046 0.260864 164.723 -3.3581 -177.948
lowerback 40.6668 2.48253 -1.27001
upperback 7.30498 -0.250571 0.901575
thorax -11.4826 -1.31279 1.99447
lowerneck -11.5644 -5.8357 -5.77598
upperneck -11.5892 -8.22825 10.3915
head -1.04319 -4.67517 4.20523
rclavicle -1.98785e-016 -1.82882e-014
rhumerus 68.8575 -9.91947 22.5368
rradius 45.4754
rwrist -87.3876
rhand -50.8559 -3.84872
rfingers 7.12502
rthumb -23.4104 -32.4448
lclavicle -1.98785e-016 -1.82882e-014
lhumerus 62.1111 -0.174778 -18.4556
lradius 35.4951
lwrist 29.7314
lhand -50.6619 22.9172
lfingers 7.12502
lthumb -23.2243 51.5368
rfemur 24.5448 -77.6327 -74.3433
rtibia 162.349
rfoot -56.8325 -5.43672
rtoes -7.48175
lfemur -61.0038 72.058 5.23485
ltibia 162.766
lfoot -48.7796 -22.0007
ltoes -11.9712
79
root 0.727942 6.33146 0.277902 164.642 -3.30906 -177.9
lowerback 40.6588 2.49614 -1.21071
upperback 7.48787 -0.275066 0.887019
thorax -11.2698 -1.35557 1.95723
lowerneck -11.8522 -5.81682 -5.64873
upperneck -11.4567 -8.22168 10.3962
head -0.956162 -4.67268 4.16739
rclavicle 3.8763e-015 5.96354e-015
rhumerus 68.8375 -9.46835 22.6445
rradius 45.4223
rwrist -86.9613
rhand -50.8998 -4.29909
rfingers 7.12502
rthumb -23.4525 -32.8898
lclavicle 3.8763e-015 5.96354e-015
lhumerus 62.1975 -0.661781 -17.7853
lradius 35.1709
lwrist 28.7158
lhand -50.5936 23.0458
lfingers 7.12502
lthumb -23.1587 51.6737
rfemur 14.575 -77.6795 -63.6675
rtibia 161.765
rfoot -56.859 -5.49908
rtoes -7.80977
lfemur -60.4126 70.9894 4.97871
ltibia 162.212
lfoot -49.3834 -20.9562
ltoes -13.8785
80
root 0.734272 6.4249 0.29715 164.588 -3.25779 -177.809
lowerback 40.6536 2.48662 -1.10544
upperback 7.6525 -0.302362 0.882316
thorax -11.0787 -1.39774 1.90793
lowerneck -12.0884 -5.79343 -5.55305
upperneck -11.371 -8.20775 10.4215
head -0.891891 -4.66837 4.14715
rclavicle 8.15017e-015 3.18055e-015
rhumerus 68.9109 -9.01532 22.633
rradius 45.2406
rwrist -86.4542
rhand -50.7715 -4.7992
rfingers 7.12502
rthumb -23.3294 -33.4055
lclavicle 8.15017e-015 3.18055e-015
lhumerus 62.299 -1.15496 -16.941
lradius 34.7497
lwrist 27.5137
lhand -50.4615 22.8831
lfingers 7.12502
lthumb -23.032 51.5269
rfemur 0.145667 -77.1805 -48.3391
rtibia 161.002
rfoot -56.6743 -5.47099
rtoes -8.09701
lfemur -59.9541 69.6365 4.49343
ltibia 161.494
lfoot -49.9611 -19.8024
ltoes -15.9796
81
root 0.741343 6.54072 0.318597 164.618 -3.22444 -177.75
lowerback 40.5878 2.47308 -1.02802
upperback 7.79485 -0.333193 0.859137
thorax -10.8938 -1.43405 1.85345
lowerneck -12.2766 -5.76262 -5.41446
upperneck -11.3164 -8.19034 10.432
head -0.848947 -4.66543 4.11686
rclavicle -2.18663e-015 9.14409e-015
rhumerus 69.0414 -8.56122 22.466
rradius 44.9645
rwrist -85.8534
rhand -50.516 -5.43057
rfingers 7.12502
rthumb -23.0843 -34.0678
lclavicle -2.18663e-015 9.14409e-015
lhumerus 62.347 -1.73893 -16.7501
lradius 34.4738
lwrist 26.9707
lhand -50.4437 22.7056
lfingers 7.12502
lthumb -23.0149 51.3515
rfemur -16.7907 -75.4262 -30.4623
rtibia 160.084
rfoot -56.2452 -5.16699
rtoes -8.06192
lfemur -60.0232 67.6674 3.25275
ltibia 160.614
lfoot -50.5084 -18.416
ltoes -18.4295
82
root 0.748497 6.67785 0.342136 164.691 -3.20867 -177.664
lowerback 40.522 2.44032 -0.937338
upperback 7.90979 -0.371543 0.844452
thorax -10.7402 -1.46918 1.80446
lowerneck -12.4603 -5.7304 -5.29561
upperneck -11.2437 -8.16715 10.4605
head -0.799445 -4.65752 4.09669
rclavicle -1.05356e-014 -3.97569e-015
rhumerus 69.2145 -8.10705 22.2484
rradius 44.6617
rwrist -85.2236
rhand -50.2334 -6.03308
rfingers 7.12502
rthumb -22.8131 -34.704
lclavicle -1.05356e-014 -3.97569e-015
lhumerus 62.2514 -2.52365 -17.9014
lradius 34.5485
lwrist 27.6817
lhand -50.6209 22.7521
lfingers 7.12502
lthumb -23.1849 51.3767
rfemur -31.3179 -72.0183 -14.8166
rtibia 158.999
rfoot -55.5965 -4.77626
rtoes -7.81376
lfemur -60.6178 64.8771 1.45359
ltibia 159.57
lfoot -50.8255 -17.0243
ltoes -20.919
